<svg width="80" height="80" viewBox="0 0 80 80" fill="none" xmlns="http://www.w3.org/2000/svg">
<circle cx="39.6268" cy="39.5423" r="38.5423" stroke="white" stroke-width="2"/>
<path d="M51.5819 28.276C50.0726 26.7596 48.2752 25.5574 46.2944 24.7394C44.3137 23.9214 42.1892 23.504 40.0448 23.5116C31.0592 23.5116 23.7361 30.7996 23.7279 39.7468C23.7279 42.6125 24.481 45.4003 25.9028 47.8686L23.5962 56.2853L32.2464 54.028C34.6394 55.3244 37.3204 56.0039 40.0448 56.0046H40.053C49.0407 56.0046 56.3617 48.7166 56.37 39.7612C56.372 37.6269 55.9498 35.5133 55.1277 33.5421C54.3056 31.571 53.1019 29.7812 51.5819 28.276ZM40.0448 53.2557C37.6148 53.2566 35.2294 52.6056 33.1394 51.3713L32.6456 51.0763L27.5139 52.4159L28.8843 47.4323L28.5633 46.9181C27.2049 44.768 26.4864 42.2787 26.4913 39.7386C26.4913 32.3113 32.5756 26.2523 40.053 26.2523C41.8344 26.2491 43.5988 26.597 45.2445 27.2758C46.8901 27.9547 48.3845 28.9511 49.6415 30.2076C50.9029 31.4593 51.9029 32.9472 52.5838 34.5855C53.2647 36.2237 53.613 37.98 53.6086 39.753C53.6004 47.2069 47.516 53.2557 40.0448 53.2557ZM47.4831 43.1492C47.0778 42.9464 45.0757 41.9652 44.6991 41.8259C44.3247 41.6928 44.051 41.6231 43.7835 42.0287C43.5098 42.4322 42.7279 43.3519 42.4934 43.6162C42.2588 43.8886 42.016 43.9193 41.6086 43.7186C41.2032 43.5138 39.8884 43.0877 38.3329 41.701C37.1189 40.6256 36.3061 39.2942 36.0633 38.8906C35.8287 38.4851 36.0407 38.2679 36.2444 38.0651C36.4234 37.8849 36.6497 37.5899 36.8534 37.3564C37.0592 37.1229 37.1271 36.9508 37.2608 36.6805C37.3946 36.406 37.3308 36.1725 37.23 35.9697C37.1271 35.7669 36.3143 33.7656 35.9707 32.9586C35.6415 32.1618 35.3061 32.2724 35.0551 32.2621C34.8205 32.2478 34.5468 32.2478 34.2732 32.2478C34.0665 32.2529 33.8632 32.3005 33.6758 32.3876C33.4885 32.4746 33.3213 32.5993 33.1847 32.7538C32.8102 33.1593 31.7629 34.1405 31.7629 36.1417C31.7629 38.143 33.2238 40.0664 33.4296 40.3388C33.6312 40.6112 36.2979 44.7059 40.3905 46.4675C41.3576 46.8874 42.1189 47.1353 42.7135 47.3237C43.6909 47.6351 44.5736 47.5879 45.2773 47.4876C46.0592 47.3688 47.6868 46.5044 48.0304 45.556C48.3679 44.6055 48.3679 43.7944 48.265 43.6244C48.1642 43.4523 47.8905 43.3519 47.4831 43.1492Z" fill="white"/>
</svg>
