<svg width="80" height="80" viewBox="0 0 80 80" fill="none" xmlns="http://www.w3.org/2000/svg">
<path d="M30.9971 26.2322C30.8762 26.0767 30.7235 25.9487 30.5493 25.8566C30.3751 25.7646 30.1833 25.7107 29.9867 25.6985C29.79 25.6863 29.5931 25.7161 29.4088 25.7858C29.2246 25.8556 29.0573 25.9638 28.918 26.1032L26.8001 28.2232C25.8108 29.2146 25.4462 30.6177 25.8784 31.8487C27.6721 36.9441 30.5901 41.5702 34.4157 45.384C38.2295 49.2095 42.8555 52.1275 47.9508 53.9213C49.1819 54.3535 50.5849 53.9889 51.5763 52.9996L53.6943 50.8816C53.8336 50.7424 53.9418 50.5751 54.0116 50.3909C54.0814 50.2066 54.1112 50.0096 54.099 49.813C54.0867 49.6163 54.0328 49.4245 53.9408 49.2503C53.8488 49.0761 53.7208 48.9235 53.5652 48.8026L48.8398 45.1279C48.6736 44.999 48.4803 44.9096 48.2745 44.8663C48.0687 44.823 47.8558 44.827 47.6518 44.878L43.166 45.9984C42.5672 46.1481 41.9399 46.1402 41.3452 45.9754C40.7504 45.8106 40.2084 45.4947 39.772 45.0583L34.7414 40.0256C34.3046 39.5894 33.9883 39.0475 33.8231 38.4527C33.658 37.8579 33.6497 37.2305 33.7991 36.6315L34.9216 32.1457C34.9726 31.9417 34.9766 31.7287 34.9334 31.5229C34.8901 31.3172 34.8006 31.1239 34.6717 30.9577L30.9971 26.2322ZM27.3716 24.5588C27.73 24.2002 28.1606 23.922 28.6348 23.7426C29.1091 23.5633 29.616 23.4868 30.122 23.5184C30.628 23.55 31.1215 23.6889 31.5697 23.9258C32.018 24.1627 32.4107 24.4923 32.7217 24.8926L36.3964 29.616C37.0703 30.4825 37.3079 31.6111 37.0416 32.6762L35.9212 37.162C35.8632 37.3944 35.8664 37.6377 35.9303 37.8685C35.9941 38.0993 36.1166 38.3096 36.2858 38.4791L41.3184 43.5118C41.4881 43.6813 41.6988 43.804 41.93 43.8679C42.1611 43.9318 42.4049 43.9347 42.6375 43.8764L47.1213 42.756C47.6469 42.6245 48.1955 42.6143 48.7257 42.7261C49.2558 42.8379 49.7536 43.0687 50.1814 43.4012L54.9048 47.0759C56.6028 48.397 56.7585 50.9062 55.2387 52.424L53.1207 54.542C51.605 56.0577 49.3396 56.7234 47.2278 55.9799C41.8227 54.0781 36.9152 50.9837 32.8692 46.9263C28.8121 42.8809 25.7178 37.9741 23.8157 32.5697C23.0743 30.46 23.74 28.1925 25.2557 26.6767L27.3736 24.5588H27.3716Z" fill="white"/>
<circle cx="39.5423" cy="39.5423" r="38.5423" stroke="white" stroke-width="2"/>
</svg>
