<svg width="80" height="80" viewBox="0 0 80 80" fill="none" xmlns="http://www.w3.org/2000/svg">
<circle cx="39.7114" cy="39.5423" r="38.5423" stroke="white" stroke-width="2"/>
<path d="M23.6808 31.2301C23.6808 30.1278 24.1124 29.0707 24.8807 28.2913C25.6489 27.5118 26.691 27.074 27.7775 27.074H52.3578C53.4443 27.074 54.4864 27.5118 55.2546 28.2913C56.0229 29.0707 56.4545 30.1278 56.4545 31.2301V47.8545C56.4545 48.9567 56.0229 50.0138 55.2546 50.7933C54.4864 51.5727 53.4443 52.0105 52.3578 52.0105H27.7775C26.691 52.0105 25.6489 51.5727 24.8807 50.7933C24.1124 50.0138 23.6808 48.9567 23.6808 47.8545V31.2301ZM27.7775 29.152C27.2342 29.152 26.7132 29.371 26.3291 29.7607C25.9449 30.1504 25.7291 30.6789 25.7291 31.2301V31.681L40.0676 40.4088L54.4062 31.681V31.2301C54.4062 30.6789 54.1904 30.1504 53.8062 29.7607C53.4221 29.371 52.9011 29.152 52.3578 29.152H27.7775ZM54.4062 34.104L44.7625 39.9745L54.4062 45.9946V34.104ZM54.3365 48.3927L42.7838 41.1798L40.0676 42.8318L37.3515 41.1798L25.7988 48.3906C25.9152 48.8328 26.1722 49.2236 26.53 49.5025C26.8878 49.7813 27.3263 49.9324 27.7775 49.9325H52.3578C52.8087 49.9326 53.247 49.7817 53.6048 49.5033C53.9625 49.2249 54.2198 48.8345 54.3365 48.3927ZM25.7291 45.9946L35.3728 39.9745L25.7291 34.104V45.9946Z" fill="white"/>
</svg>
