<svg width="27" height="24" viewBox="0 0 27 24" fill="none" xmlns="http://www.w3.org/2000/svg">
<path d="M13.631 23.1784L13.6969 23.236L13.7627 23.1784L14.1864 22.8077C19.0184 18.8783 22.094 16.2163 23.9605 13.9698C25.8326 11.7166 26.4937 9.87507 26.4937 7.59063C26.4937 3.87029 23.4745 0.796881 19.7 0.796881C16.6395 0.796881 14.8705 2.50463 13.6969 3.8271C12.5232 2.50463 10.7543 0.796881 7.69375 0.796881C3.97341 0.796881 0.9 3.81613 0.9 7.59063C0.9 9.87507 1.56119 11.7166 3.43324 13.9698C5.29977 16.2163 8.37531 18.8783 13.2074 22.8077L13.631 23.1784ZM14.5687 5.21304L14.569 5.21273C15.6845 3.93793 17.0923 2.37813 19.7 2.37813C22.5666 2.37813 24.9125 4.72398 24.9125 7.59063C24.9125 9.50099 24.3136 11.0859 22.6053 13.1041C20.9005 15.1183 18.0977 17.5559 13.6969 21.1675C9.29599 17.5559 6.49325 15.1183 4.78843 13.1041C3.08019 11.0859 2.48125 9.50099 2.48125 7.59063C2.48125 4.72398 4.8271 2.37813 7.69375 2.37813C10.3014 2.37813 11.7093 3.93793 12.8247 5.21273L12.825 5.21304L13.6219 6.11617L13.6969 6.20115L13.7719 6.11617L14.5687 5.21304Z" fill="#E3B266" stroke="#E3B266" stroke-width="0.2"/>
</svg>
