<svg width="91" height="64" viewBox="0 0 91 64" fill="none" xmlns="http://www.w3.org/2000/svg">
<path d="M3.15233 56.9642H0.69928V55.804H6.99135V56.9642H4.5383V63.1799H3.16459V56.9642H3.15233Z" fill="#E3B266"/>
<path d="M9.46893 55.804H10.8426V63.1799H9.46893V55.804Z" fill="#E3B266"/>
<path d="M21.0964 63.1799L21.0841 58.2952L18.6556 62.3373H18.0423L15.6138 58.3563V63.1799H14.3015V55.804H15.4299L18.3735 60.6887L21.2681 55.804H22.3965L22.4088 63.1799H21.0964Z" fill="#E3B266"/>
<path d="M32.0738 60.0171C32.3191 60.3346 32.4295 60.7132 32.4295 61.1772C32.4295 61.8122 32.1841 62.3129 31.6935 62.6548C31.2029 62.9968 30.4793 63.1799 29.5349 63.1799H25.8553V55.804H29.3263C30.1972 55.804 30.8718 55.975 31.3501 56.3169C31.8285 56.6589 32.0615 57.1229 32.0615 57.7213C32.0615 58.0876 31.9756 58.4051 31.8039 58.686C31.6322 58.9669 31.3992 59.1867 31.1048 59.3332C31.5096 59.4798 31.8407 59.6996 32.0738 60.0171ZM27.229 56.8787V58.918H29.1792C29.6575 58.918 30.0255 58.8326 30.283 58.6616C30.5406 58.4906 30.6755 58.2342 30.6755 57.9045C30.6755 57.5625 30.5406 57.3183 30.283 57.1351C30.0255 56.9642 29.6575 56.8787 29.1792 56.8787H27.229ZM31.0557 61.0429C31.0557 60.3346 30.5283 59.9805 29.4613 59.9805H27.2413V62.1053H29.4613C30.5161 62.1053 31.0557 61.7512 31.0557 61.0429Z" fill="#E3B266"/>
<path d="M40.917 62.032V63.1799H35.3608V55.804H40.7698V56.9519H36.7345V58.8692H40.316V59.9927H36.7345V62.032H40.917Z" fill="#E3B266"/>
<path d="M48.7422 63.1799L47.2336 61.0185C47.1722 61.0307 47.0741 61.0307 46.9515 61.0307H45.2834V63.1799H43.9097V55.804H46.9637C47.6015 55.804 48.1657 55.9139 48.6441 56.1215C49.1224 56.3291 49.4903 56.6344 49.7357 57.0252C49.9932 57.416 50.1159 57.88 50.1159 58.4296C50.1159 58.9791 49.981 59.4676 49.7111 59.8583C49.4413 60.2613 49.0488 60.5544 48.5459 60.7498L50.2508 63.1677H48.7422V63.1799ZM48.2516 57.3427C47.9449 57.0863 47.4911 56.9642 46.8901 56.9642H45.2834V59.9072H46.8901C47.4911 59.9072 47.9449 59.7851 48.2516 59.5286C48.5582 59.2722 48.7176 58.9058 48.7176 58.4418C48.7176 57.9533 48.5582 57.5992 48.2516 57.3427Z" fill="#E3B266"/>
<path d="M53.0841 55.804H54.4578V62.0198H58.3336V63.1799H53.0841V55.804Z" fill="#E3B266"/>
<path d="M60.8725 55.804H62.2462V63.1799H60.8725V55.804Z" fill="#E3B266"/>
<path d="M70.7583 59.4065H72.0584V62.3495C71.6782 62.6548 71.2366 62.8868 70.7215 63.0456C70.2186 63.2044 69.6912 63.2898 69.1515 63.2898C68.3911 63.2898 67.7165 63.1311 67.1032 62.8014C66.5023 62.4716 66.0239 62.0198 65.6805 61.4459C65.3371 60.8719 65.1653 60.2247 65.1653 59.492C65.1653 58.7715 65.3371 58.1243 65.6805 57.5381C66.0239 56.9641 66.5023 56.5123 67.1155 56.1826C67.7288 55.8529 68.4156 55.6941 69.1761 55.6941C69.8016 55.6941 70.3658 55.7918 70.8687 55.9994C71.3716 56.207 71.8008 56.5001 72.1443 56.8909L71.2734 57.7335C70.7092 57.1717 70.0224 56.8909 69.2251 56.8909C68.6977 56.8909 68.2439 57.0008 67.8392 57.2206C67.4344 57.4404 67.1155 57.7457 66.8825 58.1365C66.6494 58.5272 66.539 58.9791 66.539 59.4798C66.539 59.9682 66.6494 60.4201 66.8825 60.8108C67.1155 61.2016 67.4344 61.5191 67.8392 61.7389C68.2439 61.9588 68.71 62.0809 69.2251 62.0809C69.8016 62.0809 70.3167 61.9588 70.746 61.7023V59.4065H70.7583Z" fill="#E3B266"/>
<path d="M81.9074 55.804V63.1799H80.5337V60.0171H76.7069V63.1799H75.3332V55.804H76.7069V58.8448H80.5337V55.804H81.9074Z" fill="#E3B266"/>
<path d="M86.8503 56.9642H84.3972V55.804H90.6893V56.9642H88.2362V63.1799H86.8625V56.9642H86.8503Z" fill="#E3B266"/>
<path d="M46.4118 0.057373C34.0975 0.057373 24.0768 10.0344 24.0768 22.295C24.0768 24.9816 24.5551 27.5582 25.4382 29.9395C25.3769 30.0494 25.2788 30.2204 25.2052 30.4646C25.1071 30.7455 25.0335 31.063 24.9844 31.4049C24.9353 31.7469 24.9108 32.1132 24.9108 32.4918C24.9108 33.4931 25.1071 34.409 25.4873 35.2639C25.8675 36.1187 26.4317 36.8636 27.1799 37.4986C27.9158 38.1336 28.8357 38.6343 29.9273 38.9884C30.6387 39.2205 31.4114 39.3792 32.2577 39.4647C36.1212 42.6275 41.0641 44.5326 46.4363 44.5326C58.7506 44.5326 68.7713 34.5556 68.7713 22.295C68.7468 10.0344 58.7261 0.057373 46.4118 0.057373ZM30.6264 38.2069C29.7188 37.9504 28.9216 37.5719 28.2224 37.0712C27.5233 36.5705 26.9468 35.9355 26.5176 35.1662C26.0883 34.409 25.8675 33.5176 25.8675 32.4918C25.8675 32.1743 25.892 31.8568 25.9411 31.5637C25.9534 31.466 25.9779 31.3805 25.9902 31.295C27.1676 33.9328 28.8357 36.3018 30.8963 38.2802C30.7981 38.2557 30.7123 38.2313 30.6264 38.2069ZM46.4118 43.6777C41.6774 43.6777 37.2864 42.1391 33.7418 39.5502C35.324 39.5502 36.7345 39.3304 37.961 38.9152C39.1998 38.4877 40.3037 37.9016 41.2726 37.1567C42.2416 36.4118 43.1124 35.5203 43.8729 34.4945C44.6333 33.4687 45.3447 32.3452 46.0193 31.1363C46.6816 29.9273 47.3317 28.6451 47.9449 27.3018C48.5582 25.9585 49.2205 24.5908 49.8951 23.2109C50.582 21.8309 51.3301 20.4632 52.1396 19.0833C52.9491 17.7156 53.8813 16.3967 54.9238 15.1389L54.3351 14.6382C53.1208 15.6518 52.0538 16.763 51.1094 17.9842C50.1649 19.2054 49.3064 20.4754 48.5214 21.7943C47.7364 23.1132 47.0128 24.4442 46.3382 25.7753C45.6636 27.1186 44.989 28.4131 44.3267 29.6464C43.6644 30.892 42.9652 32.0522 42.2661 33.139C41.5547 34.2258 40.7698 35.1662 39.8989 35.9721C39.0281 36.7781 38.0714 37.4131 37.0166 37.8772C35.9618 38.3412 34.7475 38.5732 33.3984 38.5732C33.0917 38.5732 32.7851 38.561 32.4907 38.5366C27.879 34.6166 24.9599 28.7916 24.9599 22.295C24.9599 10.5106 34.5881 0.912196 46.4363 0.912196C54.237 0.912196 61.081 5.0764 64.8341 11.2922C64.086 11.5731 63.3133 11.8173 62.5038 11.9883C61.6207 12.1836 60.713 12.318 59.7686 12.4035C58.8242 12.4889 57.8798 12.5256 56.9108 12.5256C55.623 12.5256 54.2983 12.4523 52.9246 12.318C51.5509 12.1836 50.1895 12.0371 48.828 11.8783C47.4666 11.7196 46.1419 11.5853 44.8296 11.4387C43.5294 11.3044 42.3029 11.2311 41.1745 11.2311C40.2178 11.2311 39.2611 11.3044 38.3045 11.4387C37.3355 11.5853 36.4156 11.8051 35.5202 12.1226C34.6249 12.4401 33.7908 12.8309 33.0059 13.3071C32.2332 13.7834 31.5463 14.3695 30.9698 15.0534C30.3934 15.7373 29.9273 16.5188 29.5961 17.3981C29.265 18.2773 29.0933 19.2665 29.0933 20.3777C29.0933 21.5012 29.3018 22.4781 29.7065 23.2963C30.1113 24.1267 30.6632 24.8106 31.3501 25.3601C32.0369 25.9096 32.8219 26.3126 33.6927 26.5813C34.5758 26.85 35.4834 26.9843 36.4401 26.9843C37.544 26.9843 38.6356 26.8377 39.715 26.5569C40.7943 26.276 41.751 25.8974 42.5728 25.409L42.1803 24.6518C41.3708 25.0304 40.5367 25.3235 39.7027 25.5067C38.8564 25.702 38.0469 25.7875 37.2619 25.7875C36.342 25.7875 35.508 25.6654 34.7598 25.409C34.0116 25.1525 33.3616 24.7984 32.8219 24.3343C32.2822 23.8703 31.8652 23.2963 31.5831 22.6125C31.2887 21.9286 31.1416 21.1593 31.1416 20.3167C31.1416 19.0955 31.3869 17.9964 31.8775 17.0073C32.3681 16.0181 33.0549 15.1633 33.938 14.455C34.8334 13.7467 35.9005 13.1972 37.1393 12.8187C38.3903 12.4279 39.7763 12.2325 41.2849 12.2325C42.3274 12.2325 43.4804 12.2935 44.7682 12.4279C46.0561 12.5622 47.3807 12.6965 48.7667 12.8431C50.1404 12.9896 51.5264 13.1239 52.9246 13.2583C54.3228 13.3926 55.6475 13.4537 56.9108 13.4537C57.9166 13.4537 58.8978 13.4048 59.879 13.3193C60.8602 13.2339 61.8046 13.0873 62.7368 12.8797C63.6199 12.6843 64.4785 12.4157 65.3125 12.0859C66.956 15.1145 67.9005 18.5704 67.9005 22.2461C67.8882 34.0915 58.2477 43.6777 46.4118 43.6777Z" fill="#E3B266"/>
</svg>
