<svg width="61" height="44" viewBox="0 0 61 44" fill="none" xmlns="http://www.w3.org/2000/svg">
<path d="M1.66073 38.7859H0.00634766V37.9984H4.24983V38.7859H2.59545V43.0053H1.669V38.7859H1.66073Z" fill="#404043"/>
<path d="M5.92078 37.9984H6.84723V43.0053H5.92078V37.9984Z" fill="#404043"/>
<path d="M13.7626 43.0053L13.7543 39.6895L12.1165 42.4334H11.7029L10.065 39.7309V43.0053H9.17993V37.9984H9.94095L11.9262 41.3142L13.8784 37.9984H14.6394L14.6477 43.0053H13.7626Z" fill="#404043"/>
<path d="M21.1659 40.8583C21.3313 41.0738 21.4058 41.3308 21.4058 41.6458C21.4058 42.0769 21.2403 42.4168 20.9095 42.6489C20.5786 42.881 20.0906 43.0053 19.4536 43.0053H16.972V37.9984H19.313C19.9003 37.9984 20.3553 38.1144 20.6779 38.3465C21.0005 38.5786 21.1576 38.8936 21.1576 39.2998C21.1576 39.5485 21.0997 39.7641 20.9839 39.9547C20.8681 40.1454 20.7109 40.2946 20.5124 40.3941C20.7854 40.4936 21.0087 40.6428 21.1659 40.8583ZM17.8985 38.7278V40.1122H19.2137C19.5363 40.1122 19.7845 40.0542 19.9582 39.9381C20.1319 39.8221 20.2229 39.648 20.2229 39.4242C20.2229 39.1921 20.1319 39.0263 19.9582 38.9019C19.7845 38.7859 19.5363 38.7278 19.2137 38.7278H17.8985ZM20.4793 41.5546C20.4793 41.0738 20.1236 40.8334 19.404 40.8334H17.9068V42.2758H19.404C20.1154 42.2758 20.4793 42.0354 20.4793 41.5546Z" fill="#404043"/>
<path d="M27.1299 42.2261V43.0053H23.3827V37.9984H27.0306V38.7776H24.3091V40.0791H26.7245V40.8417H24.3091V42.2261H27.1299Z" fill="#404043"/>
<path d="M32.4073 43.0053L31.3899 41.5381C31.3485 41.5464 31.2823 41.5464 31.1996 41.5464H30.0746V43.0053H29.1482V37.9984H31.2079C31.638 37.9984 32.0185 38.073 32.3412 38.2139C32.6638 38.3548 32.9119 38.5621 33.0773 38.8273C33.2511 39.0926 33.3338 39.4076 33.3338 39.7806C33.3338 40.1537 33.2428 40.4853 33.0608 40.7505C32.8788 41.0241 32.6141 41.2231 32.275 41.3557L33.4248 42.9971H32.4073V43.0053ZM32.0764 39.0429C31.8697 38.8688 31.5636 38.7859 31.1583 38.7859H30.0746V40.7837H31.1583C31.5636 40.7837 31.8697 40.7008 32.0764 40.5267C32.2832 40.3526 32.3908 40.1039 32.3908 39.7889C32.3908 39.4573 32.2832 39.2169 32.0764 39.0429Z" fill="#404043"/>
<path d="M35.3357 37.9984H36.2621V42.2178H38.8761V43.0053H35.3357V37.9984Z" fill="#404043"/>
<path d="M40.5883 37.9984H41.5147V43.0053H40.5883V37.9984Z" fill="#404043"/>
<path d="M47.2554 40.4438H48.1322V42.4416C47.8758 42.6489 47.578 42.8064 47.2306 42.9142C46.8914 43.0219 46.5357 43.0799 46.1718 43.0799C45.6589 43.0799 45.204 42.9722 44.7904 42.7484C44.385 42.5245 44.0624 42.2178 43.8308 41.8282C43.5992 41.4386 43.4834 40.9992 43.4834 40.5018C43.4834 40.0127 43.5992 39.5734 43.8308 39.1755C44.0624 38.7859 44.385 38.4791 44.7986 38.2553C45.2122 38.0315 45.6754 37.9237 46.1883 37.9237C46.6102 37.9237 46.9907 37.9901 47.3298 38.131C47.669 38.2719 47.9585 38.4709 48.1901 38.7361L47.6028 39.3081C47.2223 38.9268 46.7591 38.7361 46.2214 38.7361C45.8657 38.7361 45.5596 38.8107 45.2867 38.96C45.0137 39.1092 44.7986 39.3164 44.6415 39.5817C44.4843 39.847 44.4098 40.1537 44.4098 40.4936C44.4098 40.8251 44.4843 41.1319 44.6415 41.3971C44.7986 41.6624 45.0137 41.8779 45.2867 42.0272C45.5596 42.1764 45.874 42.2593 46.2214 42.2593C46.6102 42.2593 46.9576 42.1764 47.2471 42.0023V40.4438H47.2554Z" fill="#404043"/>
<path d="M54.7746 37.9984V43.0053H53.8481V40.8583H51.2673V43.0053H50.3408V37.9984H51.2673V40.0625H53.8481V37.9984H54.7746Z" fill="#404043"/>
<path d="M58.1081 38.7859H56.4537V37.9984H60.6972V38.7859H59.0428V43.0053H58.1164V38.7859H58.1081Z" fill="#404043"/>
<path d="M30.8357 0.155701C22.5307 0.155701 15.7726 6.92841 15.7726 15.2513C15.7726 17.075 16.0952 18.8242 16.6908 20.4407C16.6494 20.5153 16.5832 20.6313 16.5336 20.7971C16.4674 20.9878 16.4178 21.2033 16.3847 21.4354C16.3516 21.6675 16.3351 21.9162 16.3351 22.1732C16.3351 22.853 16.4674 23.4747 16.7239 24.055C16.9803 24.6353 17.3608 25.1409 17.8654 25.572C18.3617 26.0031 18.9821 26.343 19.7183 26.5834C20.1981 26.7409 20.7192 26.8486 21.2899 26.9067C23.8956 29.0537 27.2292 30.3469 30.8523 30.3469C39.1572 30.3469 45.9154 23.5742 45.9154 15.2513C45.8988 6.92841 39.1407 0.155701 30.8357 0.155701ZM20.1898 26.0528C19.5777 25.8787 19.04 25.6217 18.5685 25.2819C18.097 24.942 17.7082 24.5109 17.4187 23.9887C17.1292 23.4747 16.9803 22.8696 16.9803 22.1732C16.9803 21.9577 16.9968 21.7422 17.0299 21.5432C17.0382 21.4769 17.0547 21.4189 17.063 21.3608C17.8571 23.1514 18.9821 24.7596 20.3718 26.1026C20.3056 26.086 20.2477 26.0694 20.1898 26.0528ZM30.8357 29.7666C27.6428 29.7666 24.6814 28.7221 22.2908 26.9647C23.3579 26.9647 24.3092 26.8155 25.1364 26.5336C25.9718 26.2435 26.7163 25.8456 27.3698 25.3399C28.0233 24.8342 28.6106 24.2291 29.1234 23.5327C29.6363 22.8364 30.1161 22.0737 30.571 21.2531C31.0177 20.4324 31.4561 19.562 31.8697 18.6501C32.2833 17.7382 32.73 16.8098 33.1849 15.873C33.6482 14.9363 34.1527 14.0078 34.6987 13.0711C35.2446 12.1426 35.8733 11.2474 36.5764 10.3935L36.1794 10.0536C35.3604 10.7417 34.6408 11.496 34.0039 12.325C33.3669 13.154 32.7879 14.0161 32.2585 14.9114C31.7291 15.8067 31.241 16.7103 30.7861 17.6139C30.3311 18.5257 29.8762 19.4044 29.4295 20.2417C28.9828 21.0873 28.5113 21.8748 28.0398 22.6126C27.56 23.3504 27.0306 23.9887 26.4433 24.5358C25.856 25.0829 25.2108 25.514 24.4994 25.829C23.7881 26.144 22.9691 26.3015 22.0592 26.3015C21.8524 26.3015 21.6456 26.2932 21.4471 26.2766C18.3369 23.6156 16.3682 19.6614 16.3682 15.2513C16.3682 7.25171 22.8616 0.735982 30.8523 0.735982C36.1132 0.735982 40.7289 3.56278 43.2601 7.78225C42.7555 7.97291 42.2344 8.13871 41.6884 8.25477C41.0929 8.3874 40.4808 8.47859 39.8438 8.53662C39.2069 8.59464 38.5699 8.61951 37.9165 8.61951C37.0479 8.61951 36.1545 8.56977 35.2281 8.47859C34.3016 8.3874 33.3835 8.28792 32.4653 8.18016C31.5471 8.07239 30.6537 7.9812 29.7686 7.88173C28.8918 7.79054 28.0646 7.7408 27.3036 7.7408C26.6584 7.7408 26.0132 7.79054 25.368 7.88173C24.7145 7.9812 24.0941 8.13042 23.4903 8.34595C22.8864 8.56149 22.3239 8.82676 21.7945 9.15006C21.2734 9.47335 20.8102 9.87126 20.4214 10.3355C20.0326 10.7997 19.7183 11.3303 19.4949 11.9271C19.2716 12.524 19.1558 13.1954 19.1558 13.9498C19.1558 14.7125 19.2964 15.3756 19.5694 15.9311C19.8424 16.4948 20.2146 16.959 20.6778 17.332C21.141 17.7051 21.6704 17.9786 22.2578 18.161C22.8533 18.3434 23.4655 18.4345 24.1107 18.4345C24.8551 18.4345 25.5913 18.3351 26.3193 18.1444C27.0472 17.9537 27.6924 17.6968 28.2466 17.3652L27.9819 16.8512C27.436 17.1082 26.8735 17.3071 26.311 17.4315C25.7402 17.5641 25.1943 17.6222 24.6649 17.6222C24.0445 17.6222 23.482 17.5393 22.9774 17.3652C22.4728 17.1911 22.0344 16.9507 21.6704 16.6357C21.3065 16.3207 21.0252 15.9311 20.835 15.4668C20.6365 15.0026 20.5372 14.4803 20.5372 13.9084C20.5372 13.0794 20.7026 12.3333 21.0335 11.6618C21.3644 10.9904 21.8276 10.4101 22.4232 9.92929C23.027 9.44848 23.7467 9.07545 24.5822 8.81847C25.4259 8.55319 26.3606 8.42056 27.3781 8.42056C28.0812 8.42056 28.8587 8.46201 29.7273 8.5532C30.5958 8.64438 31.4892 8.73557 32.4239 8.83505C33.3504 8.93452 34.2851 9.02571 35.2281 9.1169C36.1711 9.20808 37.0645 9.24953 37.9165 9.24953C38.5948 9.24953 39.2565 9.21637 39.9183 9.15835C40.58 9.10032 41.2169 9.00084 41.8456 8.85991C42.4412 8.72728 43.0202 8.5449 43.5827 8.32108C44.6911 10.3769 45.3281 12.7229 45.3281 15.2181C45.3198 23.2592 38.8181 29.7666 30.8357 29.7666Z" fill="#404043"/>
</svg>
