<svg width="22" height="22" viewBox="0 0 22 22" fill="none" xmlns="http://www.w3.org/2000/svg">
<path d="M5.02474 1.82636C4.94357 1.72195 4.84112 1.636 4.72418 1.57423C4.60724 1.51245 4.4785 1.47627 4.3465 1.46808C4.2145 1.45988 4.08227 1.47987 3.95859 1.52671C3.83491 1.57355 3.72262 1.64616 3.62916 1.73974L2.20745 3.16283C1.54335 3.82831 1.29861 4.77016 1.58872 5.59652C2.79283 9.01687 4.75153 12.1222 7.31954 14.6823C9.87961 17.2503 12.985 19.209 16.4053 20.4132C17.2316 20.7033 18.1735 20.4585 18.8389 19.7944L20.2606 18.3727C20.3542 18.2792 20.4268 18.1669 20.4737 18.0433C20.5205 17.9196 20.5405 17.7874 20.5323 17.6554C20.5241 17.5234 20.4879 17.3946 20.4261 17.2777C20.3644 17.1607 20.2784 17.0583 20.174 16.9771L17.002 14.5104C16.8904 14.4239 16.7607 14.3639 16.6226 14.3348C16.4844 14.3057 16.3415 14.3084 16.2045 14.3427L13.1934 15.0948C12.7914 15.1952 12.3703 15.1899 11.9711 15.0793C11.5718 14.9687 11.208 14.7566 10.9151 14.4637L7.53816 11.0854C7.24498 10.7926 7.03263 10.4288 6.92179 10.0295C6.81095 9.63028 6.8054 9.20911 6.90568 8.80707L7.65916 5.79589C7.6934 5.65894 7.6961 5.51599 7.66704 5.37785C7.63798 5.2397 7.57793 5.10996 7.49141 4.99841L5.02474 1.82636ZM2.59107 0.703013C2.83168 0.462325 3.12074 0.275578 3.43906 0.155174C3.75737 0.0347689 4.09767 -0.0165384 4.43733 0.00465844C4.777 0.0258553 5.10827 0.119071 5.40915 0.278117C5.71003 0.437162 5.97363 0.658398 6.18245 0.927133L8.64913 4.09781C9.10149 4.67942 9.26098 5.43702 9.08224 6.15201L8.33014 9.16318C8.29125 9.31914 8.29335 9.48251 8.33624 9.63742C8.37912 9.79233 8.46133 9.93352 8.57488 10.0473L11.9531 13.4256C12.067 13.5394 12.2085 13.6217 12.3636 13.6646C12.5188 13.7075 12.6825 13.7095 12.8386 13.6703L15.8484 12.9182C16.2012 12.83 16.5695 12.8231 16.9254 12.8982C17.2812 12.9732 17.6154 13.1282 17.9026 13.3513L21.0732 15.818C22.2131 16.7049 22.3176 18.3892 21.2974 19.4081L19.8756 20.8298C18.8582 21.8472 17.3375 22.2941 15.9199 21.795C12.2916 20.5184 8.99736 18.4412 6.28145 15.7176C3.55806 13.0021 1.48094 9.7083 0.204141 6.08051C-0.293593 4.66429 0.153268 3.1422 1.17074 2.12473L2.59244 0.703013H2.59107Z" fill="#E3B266"/>
</svg>
